<?xml version="1.0" encoding="utf-8"?>
<!-- Generator: Adobe Illustrator 22.1.0, SVG Export Plug-In . SVG Version: 6.00 Build 0)  -->
<svg version="1.1" id="Layer_1" xmlns="http://www.w3.org/2000/svg" xmlns:xlink="http://www.w3.org/1999/xlink" x="0px" y="0px"
	 viewBox="0 0 213.7 59.1" style="enable-background:new 0 0 213.7 59.1;" xml:space="preserve">
<style type="text/css">
	.st0{fill:#FFFFFF;stroke:#000000;stroke-width:2;stroke-miterlimit:10;}
	.st1{fill:url(#SVGID_1_);}
	.st2{fill:url(#SVGID_2_);}
</style>
<rect x="-827.7" y="-48.9" class="st0" width="252" height="144"/>
<rect x="-555.7" y="-48.9" class="st0" width="252" height="144"/>
<g>
	<path d="M-1008.2,12.2v13.6h-4.4l-8.3-10v10h-5.2V7h4.4l8.3,10V7l0,0C-1010.5,7-1008.2,9.3-1008.2,12.2z"/>
	<path d="M-991.9,22.1h-7.9l-1.5,3.6h-5.4l8.3-18.7h5.2l8.3,18.7h-1.6C-988.9,25.7-991,24.3-991.9,22.1L-991.9,22.1z M-993.5,18.2
		l-2.4-6l-2.4,6H-993.5z"/>
	<path d="M-986.1,16.3c0-5.7,4.4-9.7,10.3-9.7c3.5,0,6.2,1.3,8.1,3.5v0c-1.6,1.4-3.8,2-5.8,1.2c-0.6-0.2-1.3-0.4-2-0.4
		c-3.1,0-5.2,2.1-5.2,5.4s2.1,5.4,5.2,5.4c1.8,0,3.2-0.8,4.4-2.2l3.4,3.1c-1.8,2.3-4.6,3.5-8.1,3.5C-981.7,26.1-986.1,22-986.1,16.3
		z"/>
	<path d="M-965.3,7h5.3v13.4c0,2.9-2.4,5.3-5.3,5.3l0,0V7z"/>
	<path d="M-949,18.9l-2,2.1v4.7h-5.2V7l0,0c2.9,0,5.2,2.4,5.2,5.2v2.5l7.3-7.8h5.8l-7.7,8.3l8.1,10.4h-6.2L-949,18.9z"/>
	<path d="M-922.5,21.6L-922.5,21.6c0,2.3-1.8,4.1-4.1,4.1h-9.6V7h13.3v4.1h-8.1v3.2h6.9v4h-6.9v3.4H-922.5z"/>
	
		<text transform="matrix(1 0 0 1 -1026.8835 37.7525)" style="font-family:'Montserrat-Medium'; font-size:6.9874px; letter-spacing:1;">PROPERTIES LIMITED</text>
</g>
<g>
	<g>
		<polygon points="-710.8,8.8 -707.9,7.4 -707.9,9 -710.8,9 		"/>
		<path d="M-701.8,4.4v3.2h0l-10.1,5v12.9h-2.9V14l0,0h-6.5l0.8-0.4l9.8-4.8V7.2c0-0.3,0-0.6,0.1-0.9c0.5-1.5,2.8-1.1,2.8,0.5v0.5
			l2.8-1.4L-701.8,4.4z"/>
		<linearGradient id="SVGID_1_" gradientUnits="userSpaceOnUse" x1="-700.6088" y1="14.9358" x2="-683.306" y2="14.9358">
			<stop  offset="0" style="stop-color:#005D2B"/>
			<stop  offset="1.679599e-03" style="stop-color:#005D2B"/>
			<stop  offset="0.1278" style="stop-color:#1D7635"/>
			<stop  offset="0.2609" style="stop-color:#358B3C"/>
			<stop  offset="0.4046" style="stop-color:#469E41"/>
			<stop  offset="0.5616" style="stop-color:#52AB44"/>
			<stop  offset="0.7423" style="stop-color:#59B546"/>
			<stop  offset="1" style="stop-color:#5BBA47"/>
		</linearGradient>
		<polygon class="st1" points="-682,14.1 -688.6,14.1 -688.7,14.1 -688.7,25.5 -701.8,25.5 -701.8,4.4 -698.5,6 -688.7,10.8 
			-683,13.7 		"/>
		<rect x="-709.7" y="17.6" transform="matrix(-1.836970e-16 1 -1 -1.836970e-16 -684.2034 732.3419)" width="2.9" height="13"/>
	</g>
	<g>
		<path d="M-766.3,32.1v9.5h-1.8l-4.8-5.8v5.8h-2.2v-9.5h1.8l4.7,5.8v-5.8H-766.3z"/>
		<path d="M-757.7,39.6h-4.4l-0.8,2h-2.3l4.2-9.5h2.2l4.3,9.5h-2.3L-757.7,39.6z M-758.4,37.9l-1.5-3.6l-1.5,3.6H-758.4z"/>
		<path d="M-754.3,36.9c0-2.9,2.2-4.9,5.2-4.9c1.6,0,3,0.6,3.9,1.7l-1.4,1.3c-0.6-0.7-1.4-1.1-2.4-1.1c-1.8,0-3,1.3-3,3
			c0,1.8,1.3,3,3,3c1,0,1.8-0.4,2.4-1.1l1.4,1.3c-0.9,1.1-2.3,1.7-3.9,1.7C-752.1,41.8-754.3,39.8-754.3,36.9z"/>
		<path d="M-743.8,32.1h2.2v9.5h-2.2V32.1z"/>
		<path d="M-735.8,37.9l-1.3,1.3v2.4h-2.2v-9.5h2.2v4.5l4.2-4.5h2.5l-3.9,4.2l4.2,5.3h-2.6L-735.8,37.9z"/>
		<path d="M-721.8,39.9v1.8h-7.4v-9.5h7.2v1.8h-5V36h4.4v1.7h-4.4v2.2H-721.8z"/>
		<path d="M-708,35.5c0,2.1-1.5,3.3-4,3.3h-2.4v2.9h-1.4v-9.5h3.7C-709.5,32.1-708,33.4-708,35.5z M-709.4,35.5
			c0-1.4-0.9-2.1-2.7-2.1h-2.3v4.3h2.3C-710.3,37.6-709.4,36.8-709.4,35.5z"/>
		<path d="M-699.7,41.7l-2.1-2.9c-0.2,0-0.4,0-0.6,0h-2.4v2.9h-1.4v-9.5h3.7c2.5,0,4,1.3,4,3.3c0,1.5-0.8,2.5-2.1,3l2.3,3.2H-699.7z
			 M-699.7,35.5c0-1.4-0.9-2.1-2.7-2.1h-2.3v4.3h2.3C-700.6,37.6-699.7,36.8-699.7,35.5z"/>
		<path d="M-696.9,36.9c0-2.8,2.2-4.9,5.1-4.9c2.9,0,5.1,2.1,5.1,4.9c0,2.8-2.2,4.9-5.1,4.9C-694.8,41.8-696.9,39.7-696.9,36.9z
			 M-688.1,36.9c0-2.1-1.6-3.7-3.7-3.7c-2.1,0-3.7,1.6-3.7,3.7c0,2.1,1.6,3.7,3.7,3.7C-689.7,40.6-688.1,39-688.1,36.9z"/>
		<path d="M-677,35.5c0,2.1-1.5,3.3-4,3.3h-2.4v2.9h-1.4v-9.5h3.7C-678.5,32.1-677,33.4-677,35.5z M-678.4,35.5
			c0-1.4-0.9-2.1-2.7-2.1h-2.3v4.3h2.3C-679.3,37.6-678.4,36.8-678.4,35.5z"/>
		<path d="M-668.1,40.5v1.2h-6.9v-9.5h6.7v1.2h-5.4v2.9h4.8v1.2h-4.8v3.1H-668.1z"/>
		<path d="M-659.5,41.7l-2.1-2.9c-0.2,0-0.4,0-0.6,0h-2.4v2.9h-1.4v-9.5h3.7c2.5,0,4,1.3,4,3.3c0,1.5-0.8,2.5-2.1,3l2.3,3.2H-659.5z
			 M-659.6,35.5c0-1.4-0.9-2.1-2.7-2.1h-2.3v4.3h2.3C-660.5,37.6-659.6,36.8-659.6,35.5z"/>
		<path d="M-654.3,33.3h-3.3v-1.2h7.9v1.2h-3.3v8.3h-1.3V33.3z"/>
		<path d="M-648.2,32.1h1.4v9.5h-1.4V32.1z"/>
		<path d="M-637,40.5v1.2h-6.9v-9.5h6.7v1.2h-5.4v2.9h4.8v1.2h-4.8v3.1H-637z"/>
		<path d="M-635.7,40.6l0.5-1.1c0.7,0.6,1.9,1.1,3.1,1.1c1.6,0,2.4-0.6,2.4-1.5c0-2.3-5.8-0.9-5.8-4.4c0-1.5,1.1-2.7,3.6-2.7
			c1.1,0,2.3,0.3,3.1,0.8l-0.4,1.1c-0.8-0.5-1.8-0.8-2.6-0.8c-1.6,0-2.3,0.7-2.3,1.5c0,2.3,5.8,0.9,5.8,4.4c0,1.5-1.2,2.7-3.7,2.7
			C-633.5,41.8-634.9,41.3-635.7,40.6z"/>
	</g>
</g>
<path d="M-414.6-2.8v-5.8h-4v1.2l-3.9-4.6l-6.2,7.2l-8-10.9l-19,25.8h4.6l14.4-19.5l14.4,19.5h18.7L-414.6-2.8z M-411,6.8h-9.2
	l-6.5-8.8l4.1-4.7L-411,6.8z"/>
<g>
	<path d="M-470.9,41.6c0,1.3-0.9,2.1-2.5,2.1h-1.5v1.8h-0.9v-6h2.3C-471.9,39.5-470.9,40.3-470.9,41.6z M-471.8,41.6
		c0-0.9-0.6-1.3-1.7-1.3h-1.5v2.7h1.5C-472.3,42.9-471.8,42.4-471.8,41.6z"/>
	<path d="M-461.5,45.5l-1.3-1.8c-0.1,0-0.2,0-0.4,0h-1.5v1.8h-0.9v-6h2.3c1.6,0,2.5,0.8,2.5,2.1c0,0.9-0.5,1.6-1.3,1.9l1.4,2H-461.5
		z M-461.5,41.6c0-0.9-0.6-1.3-1.7-1.3h-1.5v2.7h1.5C-462.1,42.9-461.5,42.4-461.5,41.6z"/>
	<path d="M-455.7,42.5c0-1.8,1.4-3.1,3.2-3.1c1.8,0,3.2,1.3,3.2,3.1s-1.4,3.1-3.2,3.1C-454.3,45.6-455.7,44.3-455.7,42.5z
		 M-450.1,42.5c0-1.3-1-2.3-2.3-2.3c-1.3,0-2.3,1-2.3,2.3s1,2.3,2.3,2.3C-451.1,44.8-450.1,43.8-450.1,42.5z"/>
	<path d="M-439,41.6c0,1.3-0.9,2.1-2.5,2.1h-1.5v1.8h-0.9v-6h2.3C-439.9,39.5-439,40.3-439,41.6z M-439.9,41.6
		c0-0.9-0.6-1.3-1.7-1.3h-1.5v2.7h1.5C-440.4,42.9-439.9,42.4-439.9,41.6z"/>
	<path d="M-429.3,44.8v0.7h-4.4v-6h4.2v0.7h-3.4v1.8h3v0.7h-3v1.9H-429.3z"/>
	<path d="M-419.7,45.5l-1.3-1.8c-0.1,0-0.2,0-0.4,0h-1.5v1.8h-0.9v-6h2.3c1.6,0,2.5,0.8,2.5,2.1c0,0.9-0.5,1.6-1.3,1.9l1.4,2H-419.7
		z M-419.8,41.6c0-0.9-0.6-1.3-1.7-1.3h-1.5v2.7h1.5C-420.3,42.9-419.8,42.4-419.8,41.6z"/>
	<path d="M-412.3,40.2h-2.1v-0.7h5v0.7h-2.1v5.3h-0.8V40.2z"/>
	<path d="M-404.3,39.5h0.9v6h-0.9V39.5z"/>
	<path d="M-393.2,44.8v0.7h-4.4v-6h4.2v0.7h-3.4v1.8h3v0.7h-3v1.9H-393.2z"/>
	<path d="M-388.2,44.8l0.3-0.7c0.4,0.4,1.2,0.7,2,0.7c1,0,1.5-0.4,1.5-0.9c0-1.5-3.6-0.5-3.6-2.8c0-0.9,0.7-1.7,2.3-1.7
		c0.7,0,1.4,0.2,1.9,0.5l-0.3,0.7c-0.5-0.3-1.1-0.5-1.6-0.5c-1,0-1.5,0.4-1.5,1c0,1.5,3.6,0.5,3.6,2.8c0,0.9-0.7,1.7-2.3,1.7
		C-386.9,45.6-387.8,45.3-388.2,44.8z"/>
</g>
<g>
	<path d="M-461.4,19.4V34h-4l-5.6-6.6V34h-4.8V19.4h4l5.6,6.6v-6.6H-461.4z"/>
	<path d="M-447.6,31.5h-5.6l-1,2.5h-5l6.4-14.6h4.8l6.4,14.6h-5.1L-447.6,31.5z M-448.9,27.9l-1.4-3.7l-1.4,3.7H-448.9z"/>
	<path d="M-440,26.7c0-4.5,3.4-7.6,8.1-7.6c2.9,0,5.1,1,6.6,2.9l-3.1,2.8c-0.9-1.1-1.9-1.7-3.2-1.7c-2,0-3.4,1.4-3.4,3.7
		s1.4,3.7,3.4,3.7c1.3,0,2.3-0.6,3.2-1.7l3.1,2.8c-1.4,1.9-3.7,2.9-6.6,2.9C-436.6,34.3-440,31.2-440,26.7z"/>
	<path d="M-422.5,19.4h4.9V34h-4.9V19.4z"/>
	<path d="M-407.7,29.2l-1.1,1.2V34h-4.8V19.4h4.8v5.3l4.8-5.3h5.4l-5.8,6.4l6.1,8.2h-5.7L-407.7,29.2z"/>
	<polygon points="-383.6,30.3 -391.4,30.3 -391.4,28.4 -383.6,28.4 -383.6,24.8 -391.4,24.8 -391.4,23.1 -383.6,23.1 -383.6,19.4 
		-396.3,19.4 -396.3,34 -383.6,34 	"/>
</g>
<rect x="-262.4" y="-108.7" class="st0" width="209.3" height="119.6"/>
<path d="M-145.2-70.4v-4.8h-3.3v1l-3.3-3.8l-5.1,6l-6.7-9l-15.8,21.4h3.8l12-16.2l12,16.2h15.5L-145.2-70.4z M-142.1-62.5h-7.6
	l-5.4-7.3l3.4-3.9L-142.1-62.5z"/>
<g>
	<path d="M-191.9-33.5c0,1.1-0.8,1.7-2.1,1.7h-1.2v1.5h-0.7v-5h1.9C-192.7-35.3-191.9-34.6-191.9-33.5z M-192.6-33.5
		c0-0.7-0.5-1.1-1.4-1.1h-1.2v2.2h1.2C-193.1-32.4-192.6-32.8-192.6-33.5z"/>
	<path d="M-184.1-30.3l-1.1-1.5c-0.1,0-0.2,0-0.3,0h-1.2v1.5h-0.7v-5h1.9c1.3,0,2.1,0.7,2.1,1.7c0,0.8-0.4,1.3-1.1,1.6l1.2,1.7
		H-184.1z M-184.2-33.5c0-0.7-0.5-1.1-1.4-1.1h-1.2v2.2h1.2C-184.6-32.4-184.2-32.8-184.2-33.5z"/>
	<path d="M-179.3-32.8c0-1.5,1.1-2.6,2.7-2.6c1.5,0,2.6,1.1,2.6,2.6c0,1.5-1.1,2.6-2.6,2.6C-178.1-30.2-179.3-31.3-179.3-32.8z
		 M-174.7-32.8c0-1.1-0.8-1.9-1.9-1.9c-1.1,0-1.9,0.8-1.9,1.9s0.8,1.9,1.9,1.9C-175.5-30.9-174.7-31.7-174.7-32.8z"/>
	<path d="M-165.4-33.5c0,1.1-0.8,1.7-2.1,1.7h-1.2v1.5h-0.7v-5h1.9C-166.2-35.3-165.4-34.6-165.4-33.5z M-166.1-33.5
		c0-0.7-0.5-1.1-1.4-1.1h-1.2v2.2h1.2C-166.6-32.4-166.1-32.8-166.1-33.5z"/>
	<path d="M-157.3-30.9v0.6h-3.6v-5h3.5v0.6h-2.8v1.5h2.5v0.6h-2.5v1.6H-157.3z"/>
	<path d="M-149.4-30.3l-1.1-1.5c-0.1,0-0.2,0-0.3,0h-1.2v1.5h-0.7v-5h1.9c1.3,0,2.1,0.7,2.1,1.7c0,0.8-0.4,1.3-1.1,1.6l1.2,1.7
		H-149.4z M-149.4-33.5c0-0.7-0.5-1.1-1.4-1.1h-1.2v2.2h1.2C-149.9-32.4-149.4-32.8-149.4-33.5z"/>
	<path d="M-143.2-34.7h-1.7v-0.6h4.1v0.6h-1.7v4.4h-0.7V-34.7z"/>
	<path d="M-136.6-35.3h0.7v5h-0.7V-35.3z"/>
	<path d="M-127.4-30.9v0.6h-3.6v-5h3.5v0.6h-2.8v1.5h2.5v0.6h-2.5v1.6H-127.4z"/>
	<path d="M-123.3-30.9l0.3-0.6c0.4,0.3,1,0.6,1.6,0.6c0.9,0,1.2-0.3,1.2-0.8c0-1.2-3-0.4-3-2.3c0-0.8,0.6-1.4,1.9-1.4
		c0.6,0,1.2,0.2,1.6,0.4l-0.2,0.6c-0.4-0.3-0.9-0.4-1.4-0.4c-0.8,0-1.2,0.4-1.2,0.8c0,1.2,3,0.5,3,2.3c0,0.8-0.6,1.4-1.9,1.4
		C-122.1-30.2-122.9-30.5-123.3-30.9z"/>
</g>
<g>
	<path d="M-184-52v12.1h-3.4l-4.6-5.5v5.5h-4V-52h3.4l4.6,5.5V-52H-184z"/>
	<path d="M-172.5-42h-4.6l-0.8,2.1h-4.2l5.3-12.1h4l5.3,12.1h-4.2L-172.5-42z M-173.7-44.9l-1.2-3.1l-1.2,3.1H-173.7z"/>
	<path d="M-166.3-45.9c0-3.7,2.9-6.3,6.8-6.3c2.4,0,4.2,0.9,5.4,2.4l-2.6,2.3c-0.7-0.9-1.6-1.4-2.7-1.4c-1.7,0-2.8,1.2-2.8,3
		c0,1.9,1.1,3,2.8,3c1.1,0,1.9-0.5,2.7-1.4l2.6,2.3c-1.2,1.6-3.1,2.4-5.4,2.4C-163.4-39.6-166.3-42.2-166.3-45.9z"/>
	<path d="M-151.7-52h4.1v12.1h-4.1V-52z"/>
	<path d="M-139.5-43.9l-0.9,1v3h-4V-52h4v4.4l4-4.4h4.5l-4.9,5.3l5.1,6.8h-4.7L-139.5-43.9z"/>
	<polygon points="-119.4,-42.9 -125.9,-42.9 -125.9,-44.5 -119.4,-44.5 -119.4,-47.5 -125.9,-47.5 -125.9,-48.9 -119.4,-48.9 
		-119.4,-52 -129.9,-52 -129.9,-39.8 -119.4,-39.8 	"/>
</g>
<rect x="-262" y="40.2" class="st0" width="209" height="119.4"/>
<g>
	<g>
		<polygon points="-165.1,88.1 -162.7,86.9 -162.7,88.3 -165.1,88.3 		"/>
		<path d="M-157.6,84.4v2.7h0l-8.4,4.2V102h-2.4v-9.5l0,0h-5.4l0.6-0.3l8.1-4v-1.3c0-0.2,0-0.5,0.1-0.7c0.4-1.3,2.3-0.9,2.3,0.4v0.5
			l2.4-1.2L-157.6,84.4z"/>
		<linearGradient id="SVGID_2_" gradientUnits="userSpaceOnUse" x1="-156.6363" y1="93.1983" x2="-142.2845" y2="93.1983">
			<stop  offset="0" style="stop-color:#005D2B"/>
			<stop  offset="1.679599e-03" style="stop-color:#005D2B"/>
			<stop  offset="0.1278" style="stop-color:#1D7635"/>
			<stop  offset="0.2609" style="stop-color:#358B3C"/>
			<stop  offset="0.4046" style="stop-color:#469E41"/>
			<stop  offset="0.5616" style="stop-color:#52AB44"/>
			<stop  offset="0.7423" style="stop-color:#59B546"/>
			<stop  offset="1" style="stop-color:#5BBA47"/>
		</linearGradient>
		<polygon class="st2" points="-141.2,92.5 -146.7,92.5 -146.7,92.5 -146.7,102 -157.6,102 -157.6,84.4 -154.9,85.8 -146.7,89.8 
			-142,92.2 		"/>
		<rect x="-164.2" y="95.4" transform="matrix(-1.836970e-16 1 -1 -1.836970e-16 -62.219 263.7671)" width="2.4" height="10.8"/>
	</g>
	<g>
		<path d="M-211.1,107.5v7.9h-1.5l-3.9-4.8v4.8h-1.8v-7.9h1.5l3.9,4.8v-4.8H-211.1z"/>
		<path d="M-204,113.7h-3.7l-0.7,1.7h-1.9l3.5-7.9h1.8l3.5,7.9h-1.9L-204,113.7z M-204.6,112.3l-1.3-3l-1.3,3H-204.6z"/>
		<path d="M-201.2,111.4c0-2.4,1.8-4.1,4.3-4.1c1.4,0,2.5,0.5,3.3,1.4l-1.2,1.1c-0.5-0.6-1.2-0.9-2-0.9c-1.5,0-2.5,1-2.5,2.5
			c0,1.5,1,2.5,2.5,2.5c0.8,0,1.5-0.3,2-0.9l1.2,1.1c-0.7,0.9-1.9,1.4-3.3,1.4C-199.4,115.5-201.2,113.8-201.2,111.4z"/>
		<path d="M-192.4,107.5h1.8v7.9h-1.8V107.5z"/>
		<path d="M-185.8,112.3l-1.1,1.1v2h-1.8v-7.9h1.8v3.7l3.5-3.7h2l-3.3,3.5l3.5,4.4h-2.1L-185.8,112.3z"/>
		<path d="M-174.3,113.9v1.5h-6.1v-7.9h6v1.5h-4.2v1.7h3.7v1.4h-3.7v1.8H-174.3z"/>
		<path d="M-162.8,110.2c0,1.7-1.2,2.8-3.3,2.8h-2v2.4h-1.1v-7.9h3.1C-164,107.5-162.8,108.5-162.8,110.2z M-163.9,110.2
			c0-1.1-0.8-1.8-2.2-1.8h-1.9v3.5h1.9C-164.7,112-163.9,111.3-163.9,110.2z"/>
		<path d="M-155.8,115.4l-1.7-2.4c-0.2,0-0.3,0-0.5,0h-2v2.4h-1.1v-7.9h3.1c2.1,0,3.3,1,3.3,2.8c0,1.2-0.6,2.1-1.7,2.5l1.9,2.7
			H-155.8z M-155.9,110.2c0-1.1-0.8-1.8-2.2-1.8h-1.9v3.6h1.9C-156.6,112-155.9,111.3-155.9,110.2z"/>
		<path d="M-153.6,111.4c0-2.3,1.8-4,4.2-4c2.4,0,4.2,1.7,4.2,4c0,2.3-1.8,4-4.2,4C-151.8,115.5-153.6,113.7-153.6,111.4z
			 M-146.3,111.4c0-1.7-1.3-3-3.1-3c-1.8,0-3.1,1.3-3.1,3c0,1.8,1.3,3,3.1,3C-147.6,114.4-146.3,113.2-146.3,111.4z"/>
		<path d="M-137.1,110.2c0,1.7-1.2,2.8-3.3,2.8h-2v2.4h-1.1v-7.9h3.1C-138.3,107.5-137.1,108.5-137.1,110.2z M-138.2,110.2
			c0-1.1-0.8-1.8-2.2-1.8h-1.9v3.5h1.9C-139,112-138.2,111.3-138.2,110.2z"/>
		<path d="M-129.7,114.4v1h-5.7v-7.9h5.6v1h-4.4v2.4h4v1h-4v2.6H-129.7z"/>
		<path d="M-122.6,115.4l-1.7-2.4c-0.2,0-0.3,0-0.5,0h-2v2.4h-1.1v-7.9h3.1c2.1,0,3.3,1,3.3,2.8c0,1.2-0.6,2.1-1.7,2.5l1.9,2.7
			H-122.6z M-122.6,110.2c0-1.1-0.8-1.8-2.2-1.8h-1.9v3.6h1.9C-123.4,112-122.6,111.3-122.6,110.2z"/>
		<path d="M-118.2,108.4h-2.7v-1h6.5v1h-2.7v6.9h-1.1V108.4z"/>
		<path d="M-113.1,107.5h1.1v7.9h-1.1V107.5z"/>
		<path d="M-103.9,114.4v1h-5.7v-7.9h5.6v1h-4.4v2.4h4v1h-4v2.6H-103.9z"/>
		<path d="M-102.8,114.5l0.4-0.9c0.6,0.5,1.6,0.9,2.6,0.9c1.4,0,2-0.5,2-1.2c0-1.9-4.8-0.7-4.8-3.6c0-1.2,0.9-2.3,3-2.3
			c0.9,0,1.9,0.2,2.5,0.7l-0.4,0.9c-0.7-0.4-1.5-0.6-2.2-0.6c-1.3,0-1.9,0.6-1.9,1.3c0,1.9,4.8,0.7,4.8,3.6c0,1.2-1,2.2-3.1,2.2
			C-101,115.5-102.2,115-102.8,114.5z"/>
	</g>
</g>
<path d="M73.3,25.6v-8.9H66V17L61,11.3l-8.9,10.4L40.5,5.8L11.4,45.3H20l20.5-27.8L61,45.3h29.1L73.3,25.6z M64.9,38.9L56.1,27
	l4.9-5.7l15.1,17.6H64.9z"/>
<g>
	<path d="M100.4,45.8C100.4,45.8,100.3,45.8,100.4,45.8l-0.1-0.1c0-0.1,0-0.1,0-0.3c0-0.1,0.1-0.3,0.2-0.6c0.2-0.4,0.4-0.8,0.5-1.1
		c0.1-0.3,0.2-0.5,0.3-0.5c0.5,0.4,1.1,0.8,1.8,1.1c0.1-1.1,0.2-2.2,0.3-3.3s0.3-2.3,0.5-3.3c0.2-1.1,0.3-2.1,0.5-3.1
		c0.2-1,0.3-1.9,0.4-2.6c0,0-0.1,0.1-0.2,0.1c-0.1,0-0.2,0-0.3-0.1c-0.1-0.1-0.3-0.1-0.4-0.1c0,0,0,0.1,0,0.1c0,0,0,0,0,0l0.1-0.2
		c-0.1,0-0.1,0-0.2-0.1c-0.3-0.2-0.6-0.3-0.9-0.4c-0.3-0.1-0.4-0.2-0.4-0.4l0-0.1c0.4-0.7,0.7-1.4,1.1-2.3c0.4-0.8,0.7-1.7,1.1-2.6
		c0.1-0.2,0.2-0.5,0.3-0.9c0.1-0.3,0.3-0.7,0.6-1c0.2-0.3,0.5-0.6,0.8-0.9c0.3-0.2,0.7-0.4,1.1-0.5c0.8-0.1,1.5,0.1,2.1,0.7
		c0.6,0.6,1.1,1.3,1.6,2.2c0.4,0.9,0.8,1.9,1,2.9c0.3,1,0.5,1.9,0.6,2.6c0.2,1.6,0.3,3.3,0.3,5c0,1.7-0.2,3.3-0.6,4.7l-0.1,0.2
		c0,0.1-0.1,0.1-0.1,0.2l0,0l-0.1,0.2c0,0,0,0,0,0l0,0c0,0,0,0.1,0,0.1c0,0,0,0.1,0,0.1l-0.1,0.3l-0.1,0.1l-0.1,0.1
		c0,0.1-0.1,0.2-0.1,0.3c0,0.1-0.1,0.2-0.1,0.3l-0.1,0.1c-0.1,0.3-0.2,0.5-0.4,0.7c-0.2,0.2-0.3,0.5-0.5,0.7l-0.1,0.1l-0.2,0.2l0,0
		l0,0c0,0,0,0,0,0c0,0,0,0,0,0.1l-0.1,0.1c-0.1,0.1-0.2,0.2-0.4,0.3l-0.4,0.3c0,0-0.1,0.1-0.2,0.2l0,0l0,0l-0.2,0.1l-0.2,0.1
		c-0.4,0.2-0.8,0.4-1.2,0.5l0.1,0l0.2-0.2l0,0l0,0l0.1-0.1l0,0c0,0,0.2-0.1,0.3-0.2c0.2-0.1,0.3-0.2,0.4-0.3l0,0
		c0-0.1,0.1-0.1,0.2-0.1c0.1,0,0.1-0.1,0.2-0.1c0.3-0.2,0.6-0.4,0.7-0.6c0.1-0.2,0.3-0.4,0.5-0.6l0,0.1c0,0,0-0.1,0.1-0.1l0,0
		c0,0,0.1-0.2,0.3-0.5c0.2-0.3,0.3-0.5,0.5-0.7c0-0.1,0.1-0.4,0.3-0.8c0.2-0.4,0.3-0.8,0.4-1.2c-0.1,0.2-0.3,0.6-0.5,1.2
		c-0.2,0.6-0.6,1.2-1.1,1.8c-0.5,0.6-1.1,1.2-1.8,1.7c-0.8,0.5-1.7,0.9-2.9,1c-0.4,0.1-0.8,0.1-1.2,0c0,0.2,0,0.3,0,0.5
		c0,0.2,0,0.4,0,0.5l0,0.1c0,0,0,0,0,0.1c0,0,0,0,0,0.1l0,0l0,0.1l0,0.1l0,0l0,0.2l0,0.1l0,0.6l0,0l0,0l0.1,0.1l0.1,1.1l0,0.2l0,0
		l0,0.1c0,0,0,0,0,0c0,0,0,0,0,0.1l0,0l0.1,0.4l0.1,0.3l0,0.2l0,0.2l0.1,0.1l0,0.2c0,0.2,0.1,0.3,0.1,0.4c0,0.1,0.1,0.2,0.1,0.3
		l-0.1-0.1l0-0.1l-0.2-0.1l0,0l-0.1-0.1l0,0l-0.1-0.1c0,0,0,0-0.1-0.2c-0.1-0.2-0.1-0.3-0.1-0.4l0,0c0,0-0.1-0.1-0.1-0.2
		c0-0.1,0-0.1-0.1-0.1l0-0.1l0-0.2l0-0.1c0-0.1-0.1-0.3-0.1-0.4c0-0.1,0-0.3-0.1-0.4l0,0c0,0,0,0,0,0c0,0,0,0,0-0.1c0,0,0,0,0,0l0,0
		c0,0,0,0,0,0c0,0,0,0,0,0c0-0.1,0-0.1,0-0.1c0,0,0-0.1,0-0.1c0,0,0-0.1,0-0.1c0,0,0-0.1,0-0.1l0,0c0,0,0,0,0-0.1c0,0,0,0,0-0.1
		c0-0.1,0-0.1,0-0.1c0,0,0-0.1,0-0.1l0-0.1c0,0,0-0.1,0-0.1c0,0,0,0,0-0.1l0-0.3c0-0.1,0-0.3,0-0.4c0-0.1,0-0.2,0-0.4
		c0,0.6,0,1.2,0,1.8c0,0.5,0.1,1,0.1,1.4c0.1,0.5,0.2,0.9,0.2,1.2c0.1,0.3,0.2,0.4,0.2,0.4c0,0,0,0.1,0,0.2c0,0.1-0.1,0.1-0.2,0.2
		c-0.1,0-0.3,0-0.4-0.2c-0.1-0.2-0.2-0.4-0.3-0.6c-0.1-0.3-0.2-0.5-0.3-0.9c-0.1-0.3-0.2-0.6-0.2-0.9c-0.1-0.5-0.1-1.2-0.1-1.8
		c0-0.7,0-1.4,0-2.2c-0.7-0.1-1.4-0.3-1.9-0.5C100.8,46,100.5,45.9,100.4,45.8z M104.3,51L104.3,51C104.3,51,104.3,51.1,104.3,51
		c0,0.1,0.1,0.1,0.1,0.1L104.3,51z M104.4,51.4L104.4,51.4L104.4,51.4L104.4,51.4z M104.3,50.5C104.3,50.5,104.3,50.5,104.3,50.5
		L104.3,50.5z M104.5,51.7L104.5,51.7L104.5,51.7L104.5,51.7z M104.5,51.8L104.5,51.8L104.5,51.8L104.5,51.8z M104.4,50.6
		C104.4,50.5,104.4,50.5,104.4,50.6L104.4,50.6z M104.2,49.6C104.2,49.6,104.3,49.6,104.2,49.6L104.2,49.6L104.2,49.6L104.2,49.6z
		 M104.1,48C104.1,48,104.1,48.1,104.1,48C104.1,48.1,104.1,48.1,104.1,48L104.1,48L104.1,48z M104.2,49.2L104.2,49.2
		C104.3,49.2,104.2,49.2,104.2,49.2L104.2,49.2z M104.4,50.4L104.4,50.4l0.1,0.1L104.4,50.4L104.4,50.4L104.4,50.4L104.4,50.4z
		 M104.4,50.5L104.4,50.5L104.4,50.5L104.4,50.5L104.4,50.5z M104.8,52.8l0.1,0.1L104.8,52.8L104.8,52.8z M105,53l0.1,0.1l-0.1,0
		l-0.1,0c0,0,0,0,0,0c0,0,0,0,0,0l0,0l-0.1-0.1l-0.1-0.2l0-0.1l0.1,0.1l0-0.1l0.2,0.1L105,53L105,53z M104.7,52L104.7,52l0.1,0.1
		l-0.1,0L104.7,52z M105.1,53.1L105.1,53.1l0.1,0.2l0,0l-0.1-0.1l0.1,0.1l0,0l0.1,0.1l0,0l0,0l-0.1-0.1l0.1,0c0-0.1,0-0.1-0.1-0.1
		l0,0l0,0l0,0l0,0l-0.1-0.1c0,0,0,0,0,0c0,0,0,0,0-0.1l0,0c0,0,0,0,0,0C105,53.1,105,53.2,105.1,53.1L105.1,53.1L105.1,53.1z
		 M104.2,47c0,0,0,0.1,0,0.1C104.2,47.1,104.2,47.1,104.2,47z M104.8,43.2c0,0.2,0,0.5,0,0.8c0,0.3-0.1,0.6-0.1,0.8
		c0.2,0.1,0.5,0.1,0.9,0.1c0.4,0,0.8-0.1,1.2-0.1c0.5-0.1,0.9-0.2,1.2-0.3c0.3-0.1,0.6-0.3,0.8-0.5c0.2-0.2,0.4-0.4,0.6-0.7
		c0.2-0.3,0.4-0.5,0.7-0.9l0.1-0.1l0,0l0,0l0.1-0.1l0-0.1l0.1-0.1l0,0l0-0.1l0.1-0.3l0,0l-0.1-0.1l0.3-0.6l0-0.1l0,0l0,0l0,0l0,0
		l0,0l0.1-0.2l0.1-0.3l0.1-0.2c0.1-0.2,0.1-0.3,0.2-0.5l0,0l0,0.1c0-0.1,0.1-0.1,0.1-0.2l0-0.1c0,0,0-0.1,0-0.1
		c0.2-0.9,0.3-1.9,0.3-2.9c0-1-0.1-2.1-0.2-3.1c-0.1-0.8-0.3-1.7-0.5-2.7c-0.2-1-0.5-1.9-0.9-2.8s-0.7-1.6-1-2.2
		c-0.4-0.6-0.7-0.9-1-0.8c-0.1,0-0.2,0.2-0.3,0.5c-0.1,0.3-0.3,0.7-0.4,1.1c-0.2,0.4-0.3,0.8-0.5,1.2c-0.1,0.4-0.2,0.7-0.3,0.8
		c0.3-0.1,0.5-0.2,0.7-0.2c0.2-0.1,0.4-0.1,0.5-0.1c0.2,0,0.3,0,0.4,0.2c-0.1,1.2-0.3,2.4-0.5,3.6c-0.2,1.2-0.5,2.4-0.8,3.7
		c-0.3,1.2-0.6,2.5-1,3.7C105.4,40.7,105.1,42,104.8,43.2z M103.9,32L103.9,32l-0.1,0.1l-0.2,0.2l0.1-0.4c0,0,0,0,0-0.1
		c0,0,0,0,0-0.1c0.1,0,0.1,0.1,0.2,0.1L103.9,32z M107.5,46.6L107.5,46.6l-0.2,0.1l-0.2,0l0,0c0,0,0.1,0,0.1-0.1l-0.2,0l0,0l0,0
		l0.2-0.1l0,0l0,0c0.1,0,0.2,0,0.1-0.1c0,0,0,0,0,0c0,0,0,0,0,0l0.1-0.1l0,0c0,0,0.1,0,0.1,0C107.3,46.6,107.4,46.5,107.5,46.6
		C107.4,46.5,107.4,46.6,107.5,46.6L107.5,46.6l0.1-0.1L107.5,46.6C107.5,46.5,107.5,46.5,107.5,46.6L107.5,46.6L107.5,46.6z
		 M107.8,46.6L107.8,46.6l-0.1,0l-0.2,0.2l0-0.1l0-0.1l0,0l0.2-0.1l0.2,0l0.3-0.1l-0.1,0.1l0.1-0.1L107.8,46.6L107.8,46.6z
		 M107.7,46.6L107.7,46.6C107.7,46.6,107.7,46.6,107.7,46.6C107.7,46.7,107.6,46.7,107.7,46.6L107.7,46.6z M107.9,46.4l-0.1,0.1
		L107.9,46.4L107.9,46.4z M109.1,46L109.1,46L109.1,46l-0.1,0.2l-0.1-0.1L109.1,46z M109.2,45.7C109.2,45.7,109.3,45.7,109.2,45.7
		L109.2,45.7L109.2,45.7C109.2,45.7,109.2,45.7,109.2,45.7z M109.5,45.5L109.5,45.5L109.5,45.5C109.4,45.6,109.4,45.6,109.5,45.5
		L109.5,45.5z M109.6,43.3L109.6,43.3L109.6,43.3L109.6,43.3L109.6,43.3z M109.7,43.2L109.7,43.2l-0.1,0.1L109.7,43.2L109.7,43.2z
		 M110.1,45c0,0,0.1,0,0.1-0.1c0,0,0-0.1,0-0.1L110.1,45z M110.7,44.4L110.7,44.4L110.7,44.4L110.7,44.4z M110.9,44.3L110.9,44.3
		l-0.1,0.1l0,0.1L110.9,44.3L110.9,44.3z M110.8,44.3L110.8,44.3L110.8,44.3l-0.1,0.1l0,0.1L110.8,44.3L110.8,44.3z M110.9,44.3
		L110.9,44.3L110.9,44.3L110.9,44.3L110.9,44.3z M110.7,41.2L110.7,41.2L110.7,41.2L110.7,41.2L110.7,41.2z M110.7,41.2L110.7,41.2
		L110.7,41.2L110.7,41.2L110.7,41.2z M110.9,40.3L110.9,40.3l0,0.1L110.9,40.3L110.9,40.3z M111.4,43.3
		C111.4,43.3,111.4,43.3,111.4,43.3c0-0.1,0-0.1,0.1-0.1C111.4,43.2,111.4,43.2,111.4,43.3z M111.4,43.2L111.4,43.2L111.4,43.2
		C111.4,43.2,111.4,43.2,111.4,43.2z M111.2,39.8L111.2,39.8l0,0.1C111.2,39.9,111.2,39.8,111.2,39.8l-0.1-0.1L111.2,39.8z
		 M111.7,42.7L111.7,42.7L111.7,42.7L111.7,42.7z M112.1,41.1c0-0.1,0-0.1,0-0.1C112,41,112,41.1,112.1,41.1L112.1,41.1z
		 M112.8,38.8L112.8,38.8l0-0.3c0,0.1,0,0.1,0,0.1C112.7,38.7,112.7,38.8,112.8,38.8l0,0.2L112.8,38.8z M112.7,39l0-0.2l0-0.1l0-0.2
		c0,0.1,0,0.1,0,0.1c0,0,0,0.1,0,0.2L112.7,39z"/>
	<path d="M120.8,39.4c0,0,0.1,0,0.2,0c0.1,0,0.1,0.1,0.1,0.1c0,0,0,0,0,0.1c0,0,0,0.1-0.1,0.1l0,0.1c0,0,0,0,0,0c0,0,0,0,0,0
		s0,0,0,0c0,0,0,0,0,0c0,0,0,0,0,0.1c0,0,0,0,0,0c0,0,0,0,0,0c0,0.1,0,0.1,0,0.1c0,0,0,0,0,0.1l0,0l0,0.1l0,0.2c0,0,0,0,0,0s0,0,0,0
		c0,0,0,0.1,0.1,0.1l0,0.1l0,0.2l0,0c0,0-0.1,0-0.1,0.1c0,0,0,0,0,0.1c0,0,0,0,0,0.1l0,0.1l0,0.3c-0.1,0.5-0.2,1.2-0.3,1.8
		c-0.1,0.2-0.1,0.3-0.2,0.5c-0.1,0.2-0.1,0.4-0.2,0.6c-0.1,0.1-0.1,0.2-0.2,0.4c0,0.1-0.2,0.3-0.5,0.4c-0.1,0.1-0.1,0.2-0.2,0.2l0,0
		c-0.1,0.1-0.3,0.1-0.5,0.1c0,0,0,0,0,0c0,0,0,0,0,0l-0.1,0c0,0-0.1-0.1-0.1-0.1c0,0,0-0.1,0-0.1c-0.2-0.1-0.3-0.2-0.4-0.3l-0.2-0.4
		c-0.1-0.1-0.1-0.3-0.1-0.4c0-0.2,0-0.3-0.1-0.4c-0.1,0.3-0.3,0.7-0.5,1.1c-0.2,0.4-0.5,0.8-0.9,1c-0.1,0.2-0.3,0.3-0.6,0.3l0.1,0
		l0,0l0.1,0c0.1,0,0.1,0,0.1-0.1l0,0l0.1-0.1c0,0,0,0,0,0c0,0,0,0,0,0l-0.2,0l0,0l0,0l-0.2,0l0,0l-0.1,0.1c0,0,0,0-0.1,0l-0.1,0l0,0
		l-0.1,0l0,0l0,0l0,0c0,0,0,0,0.1,0l-0.1,0c-0.1,0-0.2-0.1-0.3-0.1c-0.1-0.1-0.2-0.1-0.3-0.1l0,0l0,0c-0.3-0.1-0.5-0.3-0.7-0.5
		c-0.2-0.2-0.3-0.4-0.3-0.7c-0.3-0.7-0.4-1.2-0.4-1.7c-0.2-1.1-0.2-2.2-0.1-3.3c0.1-1,0.3-2,0.6-2.9c0.3-0.9,0.6-1.7,1-2.4
		c0.3-0.7,0.7-1.2,1-1.6c0.3-0.4,0.6-0.6,0.7-0.7c0.1-0.1,0.2-0.1,0.3-0.1c0.2,0,0.4,0.1,0.7,0.4c0.2,0.3,0.3,0.5,0.3,0.7
		c0,0.2,0,0.3-0.1,0.4c-0.1,0.1-0.3,0.3-0.4,0.5s-0.4,0.5-0.6,0.9c-0.2,0.4-0.5,0.9-0.7,1.5c-0.2,0.6-0.5,1.4-0.7,2.4
		c-0.1,0.3-0.2,0.7-0.2,1.1c-0.1,0.4-0.1,0.9-0.1,1.4c0,0.5,0,1,0,1.5c0,0.5,0.1,1,0.2,1.4c0.1,0.3,0.1,0.4,0.2,0.5
		c0.1,0,0.1,0,0.1,0c0.1-0.1,0.2-0.3,0.4-0.5c0.1-0.2,0.3-0.5,0.4-0.7c0.2-0.5,0.4-1,0.6-1.4c0.2-0.5,0.3-0.9,0.5-1.3l0,0
		c0-0.2,0-0.3,0-0.5s0-0.3,0-0.5c0.1-0.8,0.1-1.5,0.2-2.1c0.1-0.7,0.2-1.3,0.3-1.8c0.1-0.5,0.2-1,0.3-1.3c0.1-0.3,0.2-0.6,0.2-0.7
		c0-0.1,0.1-0.1,0.2-0.2c0.1,0,0.2-0.1,0.3-0.1c0.1,0,0.3,0,0.5,0.1c0.5,0.3,0.8,0.5,0.7,0.7c0,0.1-0.1,0.3-0.1,0.5
		c0,0.2-0.1,0.5-0.2,0.8s-0.1,0.8-0.2,1.3c-0.1,0.5-0.2,1.1-0.2,1.9c-0.1,0.6-0.1,1.2-0.2,2s-0.2,1.5-0.2,2.3c0,0.1,0,0.2,0,0.3
		c0,0.1,0,0.2,0,0.3c0.2-0.3,0.3-0.7,0.4-1.1c0.1-0.4,0.2-0.7,0.4-1l0,0l0.1-0.1l0-0.1l0,0l0.1-0.2c0,0,0,0,0-0.1c0,0,0,0,0-0.1l0,0
		l0-0.1l0,0l0-0.1l0,0c0-0.1,0.1-0.2,0.1-0.3c0-0.1,0.1-0.2,0.1-0.3l0,0l0,0l0,0l0,0l0.1-0.1c0,0,0,0,0-0.1c0,0,0,0,0-0.1l0,0l0,0
		c0-0.1,0-0.1,0-0.1c0,0,0,0,0,0l0.1-0.2l0-0.1l0.1-0.1l0-0.1C120.7,39.6,120.7,39.6,120.8,39.4C120.8,39.5,120.8,39.5,120.8,39.4
		L120.8,39.4L120.8,39.4z"/>
	<path d="M128.8,24.7c0.2,0.2,0.3,0.4,0.3,0.5l0,0.1l0,0c-0.4,1.7-0.8,3.3-1,4.9c-0.3,1.5-0.4,3-0.6,4.3c-0.1,1.3-0.2,2.5-0.2,3.5
		c0,1,0,1.9,0.1,2.5l0,0.2l0.1,0.9c0.1,0.9,0.3,1.4,0.4,1.5c0.2,0.1,0.2,0.2,0.3,0.1c0.3,0,0.5-0.1,0.6-0.1c0.1-0.1,0.2-0.2,0.5-0.4
		l0.1-0.1l0.1-0.1l0.1-0.1l0.1-0.1l0.1-0.1l0.1-0.1l0-0.1l0.1,0l0-0.1l0.1-0.1c0,0,0,0,0.1,0c0,0,0,0,0.1,0l0,0l0,0l0,0
		c0.1,0,0.1,0,0.2,0c0.1,0,0.1,0.1,0.1,0.1c0,0,0,0,0,0c0,0-0.1,0-0.1,0.1l0.1,0.1l-0.1,0c0,0,0,0.1,0.1,0.1c0,0,0,0,0,0
		c0,0,0,0,0,0l0,0.1l0,0l0,0l0,0l-0.1,0.1l-0.1,0l0.1,0.1l-0.1,0.1l0,0l0,0l0,0.1l-0.1,0.2c-0.1,0.2-0.3,0.5-0.5,0.9
		c-0.2,0.3-0.5,0.6-0.8,0.9l-0.1,0.1c-0.1,0-0.1,0-0.1,0.1l0.1-0.1l-0.1,0.1c0,0,0,0-0.1,0c0,0-0.1,0-0.1,0.1c0,0,0,0,0,0
		c0,0,0,0,0,0c0,0,0,0,0,0c0,0-0.1,0-0.1,0l0-0.1l-0.1,0l0,0l0,0l-0.1,0l-0.1,0.1l-0.2,0c0,0-0.1,0-0.1,0c-0.1,0-0.1,0-0.1-0.1
		c0,0,0,0,0,0l0,0l0,0l0,0l0,0l0,0l-0.1-0.1c-0.3-0.1-0.6-0.3-0.8-0.5c-0.2-0.2-0.3-0.4-0.5-0.7c-0.1-0.2-0.2-0.5-0.2-0.7
		c0-0.2-0.1-0.4-0.1-0.6c-0.1,0.4-0.3,0.8-0.5,1.2c-0.2,0.4-0.5,0.8-0.8,1.2l0,0c-0.1,0.2-0.2,0.3-0.3,0.4c-0.1,0.1-0.2,0.2-0.2,0.3
		l0,0c0-0.1,0,0,0,0c0,0.1-0.2,0.2-0.6,0.3l0,0l0,0l0.1-0.1l-0.3,0l0,0l0.1,0l0.1,0c-0.1,0-0.1,0-0.1,0c0,0-0.1,0-0.1,0
		c-0.2,0-0.3,0-0.5-0.1l0-0.1c-0.1,0-0.1-0.1-0.2-0.1c-0.1,0-0.1,0-0.2-0.1l0,0l0.2,0.1l0,0c-0.3-0.2-0.6-0.4-0.8-0.7
		c-0.2-0.3-0.4-0.6-0.5-0.9c-0.1-0.3-0.2-0.7-0.3-1c-0.1-0.3-0.1-0.7-0.2-1c-0.2-1.4-0.2-2.7,0-4c0.2-1.2,0.5-2.3,0.9-3.2
		s0.8-1.7,1.2-2.2c0.4-0.6,0.8-0.9,1-0.9c0,0,0,0,0,0c0,0,0.1-0.1,0.2-0.1c0.1,0,0.3,0.1,0.5,0.3c0.2,0.2,0.4,0.5,0.4,0.9
		c0,0.2,0,0.4-0.2,0.5c-0.2,0.1-0.4,0.4-0.7,0.7c-0.3,0.3-0.6,0.8-0.9,1.5c-0.3,0.7-0.6,1.6-0.8,2.9c-0.1,0.5-0.1,1.2-0.2,1.9
		c0,0.8,0,1.5,0.1,2.3c0,0.3,0.1,0.7,0.2,1.1c0.1,0.4,0.2,0.6,0.4,0.6c0.2,0,0.4-0.2,0.6-0.5c0.2-0.3,0.4-0.7,0.6-1.1
		c0.2-0.4,0.4-0.8,0.6-1.3c0.2-0.5,0.3-0.8,0.5-1.2l0.1-0.3c0-0.7,0-1.6,0-2.7c0.1-1.1,0.2-2.5,0.4-4.3c0.1-0.5,0.1-1.1,0.2-1.7
		c0-0.6,0.2-1.3,0.4-1.9c0.1-0.4,0.2-0.8,0.3-1.2c0.1-0.4,0.2-0.8,0.3-1.2l0.3-1l0.2-0.8c0-0.1,0.1-0.1,0-0.1c0,0,0,0,0-0.1l0.2-0.2
		c0,0,0,0,0-0.1c0-0.1,0.2-0.2,0.5-0.2C128.3,24.4,128.5,24.5,128.8,24.7z M123.7,45.5c0,0-0.1,0.1-0.2,0.1l0,0L123.7,45.5z
		 M127.8,44.8l-0.1,0l0,0.1L127.8,44.8L127.8,44.8z"/>
	<path d="M137.1,23.5c0.2,0.2,0.3,0.4,0.3,0.5l0,0.1l0,0c-0.4,1.7-0.8,3.3-1,4.9c-0.3,1.5-0.4,3-0.6,4.3c-0.1,1.3-0.2,2.5-0.2,3.5
		c0,1,0,1.9,0.1,2.5l0,0.2l0.1,0.9c0.1,0.9,0.3,1.4,0.4,1.5c0.2,0.1,0.2,0.2,0.3,0.1c0.3,0,0.5-0.1,0.6-0.1c0.1-0.1,0.2-0.2,0.5-0.4
		l0.1-0.1l0.1-0.1l0.1-0.1l0.1-0.1l0.1-0.1l0.1-0.1l0-0.1l0.1,0l0-0.1l0.1-0.1c0,0,0,0,0.1,0c0,0,0,0,0.1,0l0,0l0,0l0,0
		c0.1,0,0.1,0,0.2,0c0.1,0,0.1,0.1,0.1,0.1c0,0,0,0,0,0s-0.1,0-0.1,0.1l0.1,0.1l-0.1,0c0,0,0,0.1,0,0.1c0,0,0,0,0,0c0,0,0,0,0,0
		l0,0.1l0,0l0,0l0,0l-0.1,0.1l-0.1,0l0.1,0.1l-0.1,0.1l0,0l0,0l0.1,0.1l-0.1,0.2c-0.1,0.2-0.3,0.5-0.5,0.9c-0.2,0.3-0.5,0.6-0.8,0.9
		l-0.1,0.1c-0.1,0-0.1,0-0.1,0.1l0.1-0.1l-0.1,0.1c0,0,0,0-0.1,0c0,0-0.1,0-0.1,0.1c0,0,0,0,0,0c0,0,0,0,0,0c0,0,0,0,0,0
		c0,0-0.1,0-0.1,0l0-0.1l-0.1,0l0,0l0,0l-0.1,0l-0.1,0.1l-0.2,0c0,0-0.1,0-0.1,0c-0.1,0-0.1,0-0.1-0.1c0,0,0,0,0,0l0,0l0,0l0,0l0,0
		l0,0l-0.1-0.1c-0.3-0.1-0.6-0.3-0.8-0.5c-0.2-0.2-0.3-0.4-0.5-0.7c-0.1-0.2-0.2-0.5-0.2-0.7c0-0.2-0.1-0.4-0.1-0.6
		c-0.1,0.4-0.3,0.8-0.5,1.2c-0.2,0.4-0.5,0.8-0.8,1.2l0,0c-0.1,0.2-0.2,0.3-0.3,0.4c-0.1,0.1-0.2,0.2-0.2,0.3l0,0c0-0.1,0,0,0,0
		c0,0.1-0.2,0.2-0.6,0.3l0,0l0,0l0.1-0.1l-0.3,0l0,0l0.1,0l0.1,0c-0.1,0-0.1,0-0.1,0c0,0-0.1,0-0.1,0c-0.2,0-0.3,0-0.5-0.1l0-0.1
		c-0.1,0-0.1-0.1-0.2-0.1c-0.1,0-0.1,0-0.2-0.1l0,0l0.2,0.1l0,0c-0.3-0.2-0.6-0.4-0.8-0.7c-0.2-0.3-0.4-0.6-0.5-0.9
		c-0.1-0.3-0.2-0.7-0.3-1c-0.1-0.3-0.1-0.7-0.2-1c-0.2-1.4-0.2-2.7,0-4c0.2-1.2,0.5-2.3,0.9-3.2c0.4-0.9,0.8-1.7,1.2-2.2
		c0.4-0.6,0.8-0.9,1-0.9c0,0,0,0,0,0c0,0,0.1-0.1,0.2-0.1c0.1,0,0.3,0.1,0.5,0.3c0.2,0.2,0.4,0.5,0.4,0.9c0,0.2,0,0.4-0.2,0.5
		c-0.2,0.1-0.4,0.4-0.7,0.7c-0.3,0.3-0.6,0.8-0.9,1.5c-0.3,0.7-0.6,1.6-0.8,2.9c-0.1,0.5-0.1,1.2-0.2,1.9c0,0.8,0,1.5,0.1,2.3
		c0,0.3,0.1,0.7,0.2,1.1c0.1,0.4,0.2,0.6,0.4,0.6c0.2,0,0.4-0.2,0.6-0.5c0.2-0.3,0.4-0.7,0.6-1.1c0.2-0.4,0.4-0.8,0.6-1.3
		c0.2-0.5,0.3-0.8,0.5-1.2l0.1-0.3c0-0.7,0-1.6,0-2.7c0.1-1.1,0.2-2.5,0.4-4.3c0.1-0.5,0.1-1.1,0.2-1.7c0-0.6,0.2-1.3,0.4-1.9
		c0.1-0.4,0.2-0.8,0.3-1.2c0.1-0.4,0.2-0.8,0.3-1.2l0.3-1l0.2-0.8c0-0.1,0.1-0.1,0-0.1c0,0,0,0,0-0.1l0.2-0.2c0,0,0,0,0-0.1
		c0-0.1,0.2-0.2,0.5-0.2C136.6,23.2,136.8,23.3,137.1,23.5z M132,44.3c0,0-0.1,0.1-0.2,0.1l0,0L132,44.3z M136,43.6l-0.1,0l0,0.1
		L136,43.6L136,43.6z"/>
	<path d="M193.6,44.9c0.1,0,0.1,0,0.2,0.1c0.2,0.1,0.3,0.2,0.3,0.5c0.1,0.8-0.1,1.2-0.7,1.3c-0.3,0-0.8,0-1.5-0.1
		c-0.7-0.1-1.8-0.1-3.1-0.2c-1.3-0.1-36.5-1.4-38.4-1.5c-2-0.1-4.3-0.1-7.1-0.2c-0.1,0.7-0.3,1.4-0.6,2.2c-0.3,0.8-0.6,1.5-1.1,2.3
		c-0.5,0.7-1.1,1.3-1.8,1.9s-1.6,0.9-2.7,1c-0.5,0.1-1.1,0.1-1.7,0c-0.6-0.1-1.2-0.2-1.8-0.4c-0.6-0.2-1.1-0.5-1.6-0.9
		c-0.5-0.4-0.9-0.8-1.2-1.3c-0.1-0.1-0.1-0.2-0.1-0.3s0-0.1-0.1-0.2l0,0c0-0.1,0-0.1,0-0.1c0,0,0-0.1,0-0.1l0,0l0,0c0,0,0,0-0.1-0.1
		c0-0.1,0-0.1-0.1-0.2c0-0.1,0-0.1,0-0.2c0-0.1,0-0.1,0-0.2l0,0l0-0.3c0-0.5,0.1-0.8,0.3-1.1c0.2-0.3,0.5-0.6,1-0.9l0.6-0.3
		c0,0,0.1,0,0.1,0c0,0,0.2-0.1,0.4-0.2c0.1-0.1,0.1-0.1,0.1-0.1c0,0,0,0,0.1,0l0.2,0c0.1,0,0.1,0,0.1-0.1c0,0,0,0,0.1-0.1
		c0.1,0,0.1,0,0.1,0c0,0,0.1,0,0.1,0c0,0,0.1-0.1,0.1-0.1c0,0,0.1-0.1,0.1-0.1l0.1,0l0.1-0.1l0.4-0.1c0,0,0.1,0,0.1,0
		c0,0,0.1,0,0.1,0s0,0,0.1,0c0,0,0,0,0.1,0l0.2,0l0.3-0.1c0,0,0.1,0,0.1,0c0,0,0.1,0,0.1,0s0,0,0.1,0c0,0,0,0,0.1,0l0.7-0.1
		c0.3-0.1,0.6-0.1,0.9-0.2c0.3-0.1,0.7-0.1,1.1-0.2c1-0.1,2-0.3,3.2-0.3c0-0.6,0.1-1.3,0.1-1.9c0.1-0.6,0.1-1.2,0.2-1.8l-0.1,0.3
		c-0.1,0.2-0.2,0.5-0.4,0.7c-0.1,0.3-0.3,0.6-0.5,0.9c-0.2,0.3-0.4,0.6-0.7,0.8c-0.3,0.2-0.6,0.4-1,0.4c-0.3,0-0.5,0-0.7-0.1
		c-0.2-0.1-0.4-0.2-0.5-0.4c-0.1-0.2-0.2-0.3-0.3-0.5c-0.1-0.2-0.1-0.3-0.1-0.4c-0.1-1-0.2-2-0.2-2.9c0-0.9,0.1-1.9,0.1-2.8
		c0.1-2.5,0.4-4.3,0.7-5.4c0.3-1.1,0.6-1.7,0.8-1.7c0.2,0,0.3,0,0.5,0.1c0.2,0.1,0.3,0.2,0.4,0.3c0.1,0.1,0.3,0.2,0.4,0.4
		c0,0.1,0,0.3,0,0.5s-0.1,0.6-0.2,1c-0.1,0.4-0.2,0.9-0.3,1.6c-0.1,0.6-0.2,1.4-0.3,2.3c-0.1,0.4-0.1,0.8-0.2,1.4
		c-0.1,0.6-0.2,1.1-0.2,1.7c-0.1,0.6-0.1,1.2-0.2,1.8c0,0.6,0,1.1,0,1.5c0,0.2,0.1,0.3,0.2,0.3c0.3,0,0.6-0.3,0.9-0.7
		c0.3-0.4,0.6-0.8,0.8-1.1l0.1-0.2l0.2-0.4l0.1-0.1l0.1-0.2c0,0,0-0.1,0.1-0.1l0.1-0.2l0,0l0-0.1c0.1-0.1,0.1-0.2,0.2-0.4
		s0.1-0.2,0.2-0.3l0,0l0,0.1l0.1,0.1l0.1-0.2l0-0.1l0-0.1c0,0,0.1-0.2,0.1-0.6c0-0.4,0.1-0.9,0.1-1.4c0-0.5,0.1-1,0.1-1.6
		c0-0.5,0.1-0.9,0.1-1.1c0.1-0.9,0.1-1.7,0.1-2.2c0-0.6,0.1-1,0.1-1.3c0-0.3,0.1-0.6,0.2-0.7c0.1-0.1,0.3-0.2,0.5-0.2
		c0.3,0,0.6,0,1,0.1c0.4,0.1,0.6,0.3,0.6,0.5c0,0.1,0,0.3,0,0.4s-0.1,0.3-0.1,0.6c-0.1,0.2-0.1,0.6-0.2,1.1
		c-0.1,0.5-0.2,1.1-0.3,1.9c-0.1,0.8-0.1,1.8-0.2,2.9c-0.1,1.2-0.2,2.6-0.3,4.2c0,0.1,0,0.1,0.1,0.1c0.1,0,0.2-0.2,0.4-0.5
		c0.2-0.3,0.4-0.8,0.7-1.6l0-0.2l0-0.1l0,0l0,0c0,0,0,0,0,0s0,0,0,0L145,38l0-0.2c0,0,0-0.1,0-0.1c0,0,0,0,0-0.1l0.1-0.2l0.1-0.1
		l0,0c0.1-0.2,0.2-0.5,0.3-0.7l0,0l0,0.1l0.1,0.2l0,0l0,0l0,0l0.1-0.2l-0.1-0.1l-0.1-0.1l0.1-0.1l0,0.1l0-0.1l0,0l0-0.1l0,0l0,0
		l0,0.1l0,0l0,0c-0.1,0-0.1,0-0.1,0.1c0,0,0,0,0,0l0-0.1c0,0,0,0,0.1,0.1l0,0.1l0.1-0.2l0.1-0.2c0.1-0.1,0.1-0.2,0.2-0.2l0-0.1l0,0
		c0.1,0,0.1,0,0.2,0c0.1,0,0.1,0.1,0.1,0.1c0,0,0,0.1,0,0.1c0,0-0.1,0.1-0.1,0.1l0,0.1c0,0,0,0,0,0c0,0,0,0-0.1,0c0,0-0.1,0,0,0.1
		c0,0,0,0.1,0.1,0.1c0,0.1,0,0.1-0.1,0.1s-0.1,0.1-0.1,0.1c0,0,0,0.1,0,0.1c0,0,0,0,0,0.1l-0.1,0l0.1,0.1l-0.1,0.3c0,0,0,0,0,0
		c0,0,0,0,0,0l0,0.1l-0.1,0.2l0,0.2c0,0,0,0,0,0c0,0,0,0,0,0.1l0,0l0,0l-0.1,0.4c-0.1,0.2-0.1,0.4-0.2,0.8c-0.1,0.4-0.2,0.8-0.3,1.2
		c-0.1,0.4-0.3,0.8-0.6,1.1c-0.2,0.3-0.6,0.5-1,0.6l-0.2,0c0,0.2,0,0.4-0.1,0.6c0,0.2,0,0.4,0,0.6c1.8-0.1,3.7-0.2,5.6-0.2
		c1.9,0,37.1,1.2,38.7,1.3c1.6,0,2.9,0.1,4,0.2C192.7,44.8,193.4,44.8,193.6,44.9z M136.1,50.7c0.1,0,0.3,0,0.4,0
		c0.1,0,0.3,0,0.4-0.1c0.6-0.1,1.2-0.3,1.7-0.7c0.5-0.4,0.9-0.8,1.3-1.3c0.4-0.5,0.7-1.1,0.9-1.7c0.2-0.6,0.4-1.3,0.5-2
		c-0.4,0-0.8,0-1.3,0.1c-0.4,0.1-0.8,0.1-1.3,0.1l-0.2,0l-0.1,0l-0.2,0c0,0,0,0-0.1,0c-0.1,0-0.1,0-0.1,0l-0.2,0l-0.1,0l-0.6,0.1
		l-0.2,0l0,0c-0.2,0.1-0.4,0.1-0.6,0.1c-0.2,0-0.4,0.1-0.6,0.1l-0.1,0l-0.2,0.1l-0.1,0c0,0,0,0-0.1,0.1l-0.4,0.1l-0.3,0.1l-0.2,0
		l-0.2,0.1l0,0l-0.2,0.1c-0.3,0.1-0.6,0.2-0.9,0.3l0.1,0l0.1-0.2l0,0l0.1,0l0,0l0.1-0.1c0-0.1,0.1-0.1,0.3-0.2
		c0.1,0,0.3-0.1,0.4-0.1l0,0c0-0.1,0.2-0.1,0.3-0.1c0.2,0,0.3-0.1,0.3-0.1l0.1,0c0.1-0.1,0.3-0.1,0.4-0.2c0.1,0,0.3-0.1,0.4-0.1l0,0
		c0,0,0,0,0,0c0,0,0,0,0,0c0-0.1,0.1-0.1,0.3-0.1c0.2,0,0.3-0.1,0.4-0.1l0.3,0l0.1,0c0,0,0.1-0.1,0.2-0.1c-0.1,0-0.2,0-0.2,0
		l-0.6,0.1l-0.4,0l-0.3,0.1c0,0-0.1,0-0.1,0c0,0-0.1,0-0.1,0l-0.1,0l-0.7,0.3c-0.1,0-0.1,0-0.1,0c0,0-0.1,0-0.1,0
		c-0.1,0-0.1,0-0.1,0.1c0,0,0,0-0.1,0l-0.3,0.1l-0.4,0.2c0,0-0.1,0-0.1,0c0,0-0.1,0-0.1,0l-0.1,0.1l-0.2,0.1c-0.6,0.2-1,0.5-1.2,0.8
		c-0.2,0.3-0.3,0.6-0.3,0.9c0,0.3,0.2,0.6,0.5,1c0.3,0.3,0.6,0.7,1,0.9c0.4,0.3,0.9,0.5,1.4,0.7C135,50.6,135.6,50.7,136.1,50.7z
		 M133.2,51.5l-0.3-0.2l-0.3-0.1l0.3,0.1l0.1,0.1L133.2,51.5z M133.7,51.5l-0.2-0.1l-0.3-0.1l0,0.1l0.2,0.1l0,0L133.7,51.5
		L133.7,51.5z M133.8,51.5c-0.1,0-0.1-0.1-0.2-0.1c-0.1,0-0.1,0-0.2-0.1l-0.1,0L133.8,51.5L133.8,51.5z M136,52.1L136,52.1
		c-0.1-0.1-0.2-0.1-0.3-0.1c-0.1,0-0.2,0-0.3,0l0,0l0.2,0L136,52.1z M134.7,45.8C134.7,45.7,134.7,45.7,134.7,45.8L134.7,45.8z
		 M135,45.6L135,45.6L135,45.6L135,45.6z M135.2,45.7L135.2,45.7L135.2,45.7L135.2,45.7z M136.5,52.1c-0.1,0-0.1,0-0.1,0
		c0,0-0.1,0-0.1,0c0,0,0,0,0.1,0c0,0,0,0,0.1,0L136.5,52.1z M135.3,45.6c0.1,0,0.2-0.1,0.2-0.1L135.3,45.6z M135.9,45.6l0.2,0l0,0
		L135.9,45.6L135.9,45.6z M136,45.5L136,45.5L136,45.5L136,45.5z M136,45.5L136,45.5L136,45.5L136,45.5z M137,45.3L137,45.3
		C137,45.3,137,45.3,137,45.3c0.1,0,0.1,0,0.1,0L137,45.3z M137.4,45.2L137.4,45.2C137.5,45.2,137.5,45.2,137.4,45.2L137.4,45.2z"/>
</g>
<g>
	<path d="M109.4,17.4c0.6-0.7,1-1.5,1-2.5c0-1.3-0.4-2.2-1.2-2.9c-0.8-0.7-1.9-1-3.3-1h-3.5v12h1.9v-5.2l3.7,5.1l0,0.1h2.4l-3.3-4.5
		C108,18.4,108.8,18,109.4,17.4z M108.4,14.9c0,0.7-0.3,1.3-0.8,1.6c-0.5,0.4-1.4,0.6-2.6,0.6h-0.7v-4.3h1.1c1,0,1.8,0.2,2.3,0.5
		C108.2,13.7,108.4,14.2,108.4,14.9z"/>
	<path d="M119.4,15.7c-0.4-0.7-1-1.2-1.7-1.6s-1.4-0.6-2.2-0.6c-0.7,0-1.3,0.1-1.9,0.4c-0.6,0.2-1.1,0.6-1.5,1.1
		c-0.4,0.5-0.7,1-1,1.5c-0.2,0.6-0.3,1.2-0.3,1.8c0,0.6,0.1,1.2,0.4,1.8c0.2,0.6,0.6,1.1,1,1.6c0.5,0.5,1,0.8,1.5,1.1
		c0.6,0.2,1.2,0.4,1.8,0.4c1,0,1.9-0.3,2.6-0.8c0.7-0.5,1.3-1.3,1.8-2.3l0.1-0.2h-2.1l0,0.1c-0.2,0.4-0.6,0.8-1,1
		c-0.4,0.2-0.9,0.4-1.4,0.4c-0.7,0-1.3-0.2-1.8-0.7c-0.5-0.4-0.8-0.9-0.9-1.6h7.4v-0.4c0-0.6-0.1-1.2-0.2-1.7
		C119.9,16.6,119.7,16.1,119.4,15.7z M112.8,17.4c0.2-0.6,0.5-1.1,1-1.5c0.5-0.4,1.1-0.6,1.7-0.6c0.6,0,1.2,0.2,1.7,0.6
		c0.4,0.4,0.7,0.8,0.9,1.5H112.8z"/>
	<path d="M128.5,14.8c-0.4-0.3-0.8-0.6-1.2-0.8c-0.5-0.2-1.1-0.3-1.7-0.3c-0.7,0-1.3,0.1-1.9,0.3c-0.5,0.2-1,0.6-1.5,1.1
		c-0.4,0.4-0.7,0.9-1,1.5c-0.2,0.6-0.3,1.2-0.3,1.8c0,1.4,0.5,2.5,1.4,3.4c0.9,0.9,2,1.4,3.4,1.4c0.6,0,1.1-0.1,1.7-0.3
		c0.4-0.2,0.8-0.4,1.2-0.8V23h1.9v-9.1h-1.9V14.8z M127.7,16.3c0.6,0.6,0.9,1.3,0.9,2.1c0,0.8-0.3,1.5-0.9,2c-0.6,0.6-1.2,0.9-2,0.9
		c-0.8,0-1.5-0.3-2.1-0.9c-0.6-0.6-0.9-1.3-0.9-2.2c0-0.8,0.3-1.5,0.9-2.1c0.6-0.6,1.3-0.8,2.1-0.8
		C126.5,15.4,127.1,15.7,127.7,16.3z"/>
	<rect x="131.9" y="11" width="1.8" height="12"/>
	<polygon points="140.2,23 146.5,23 146.5,21.1 142.2,21.1 142.2,17.8 146.5,17.8 146.5,16.1 142.2,16.1 142.2,12.8 146.5,12.8 
		146.5,11 140.2,11 	"/>
	<path d="M151.6,17.5l-0.6-0.2c-0.8-0.3-1.2-0.7-1.2-1.1c0-0.3,0.1-0.5,0.3-0.6c0.2-0.2,0.4-0.3,0.6-0.3c0.3,0,0.5,0.1,0.7,0.2
		c0.2,0.2,0.3,0.4,0.3,0.7l0,0.1h1.8l0-0.1c0-0.8-0.3-1.5-0.8-1.9c-0.5-0.5-1.1-0.7-1.9-0.7c-0.8,0-1.4,0.3-1.9,0.8
		c-0.5,0.5-0.8,1.2-0.8,1.9c0,0.4,0.1,0.8,0.2,1.2c0.2,0.3,0.4,0.6,0.7,0.9c0.2,0.1,0.6,0.3,1.2,0.6c0.2,0.1,0.4,0.2,0.5,0.2
		c0.4,0.1,0.6,0.3,0.8,0.5c0.2,0.2,0.2,0.4,0.2,0.7c0,0.3-0.1,0.6-0.3,0.8c-0.2,0.2-0.5,0.3-0.8,0.3c-0.4,0-0.6-0.1-0.9-0.4
		c-0.2-0.3-0.4-0.6-0.4-1.1v-0.1h-1.8l0,0.1c0,1,0.3,1.8,0.9,2.3c0.5,0.6,1.2,0.9,2.1,0.9c0.8,0,1.6-0.3,2.1-0.8
		c0.6-0.5,0.8-1.2,0.8-2.1c0-0.7-0.2-1.3-0.5-1.7C152.8,18.2,152.3,17.8,151.6,17.5z"/>
	<polygon points="157.1,11 155.2,11 155.2,13.9 154,13.9 154,15.6 155.2,15.6 155.2,23 157.1,23 157.1,15.6 158.3,15.6 158.3,13.9 
		157.1,13.9 	"/>
	<path d="M166.4,14.8c-0.4-0.3-0.8-0.6-1.2-0.8c-0.5-0.2-1.1-0.3-1.7-0.3c-0.7,0-1.3,0.1-1.9,0.3c-0.5,0.2-1,0.6-1.5,1.1
		c-0.4,0.4-0.7,0.9-1,1.5c-0.2,0.6-0.3,1.2-0.3,1.8c0,1.4,0.5,2.5,1.4,3.4c0.9,0.9,2,1.4,3.4,1.4c0.6,0,1.1-0.1,1.7-0.3
		c0.4-0.2,0.8-0.4,1.2-0.8V23h1.9v-9.1h-1.9V14.8z M165.6,16.3c0.6,0.6,0.9,1.3,0.9,2.1c0,0.8-0.3,1.5-0.9,2c-0.6,0.6-1.2,0.9-2,0.9
		c-0.8,0-1.5-0.3-2.1-0.9c-0.6-0.6-0.9-1.3-0.9-2.2c0-0.8,0.3-1.5,0.9-2.1c0.6-0.6,1.3-0.8,2.1-0.8C164.4,15.4,165,15.7,165.6,16.3z
		"/>
	<polygon points="172.2,11 170.4,11 170.4,13.9 169.1,13.9 169.1,15.6 170.4,15.6 170.4,23 172.2,23 172.2,15.6 173.5,15.6 
		173.5,13.9 172.2,13.9 	"/>
	<path d="M183.3,18.7c0-0.6-0.1-1.2-0.2-1.7c-0.1-0.5-0.3-0.9-0.6-1.4c-0.4-0.7-1-1.2-1.7-1.6s-1.4-0.6-2.2-0.6
		c-0.7,0-1.3,0.1-1.9,0.4c-0.6,0.2-1.1,0.6-1.5,1.1c-0.4,0.5-0.7,1-1,1.5c-0.2,0.6-0.3,1.2-0.3,1.8c0,0.6,0.1,1.2,0.4,1.8
		c0.2,0.6,0.6,1.1,1,1.6c0.5,0.5,1,0.8,1.5,1.1c0.6,0.2,1.2,0.4,1.8,0.4c1,0,1.9-0.3,2.6-0.8c0.7-0.5,1.3-1.3,1.8-2.3l0.1-0.2H181
		l0,0.1c-0.2,0.4-0.6,0.8-1,1c-0.4,0.2-0.9,0.4-1.4,0.4c-0.7,0-1.3-0.2-1.8-0.7c-0.5-0.4-0.8-0.9-0.9-1.6h7.4V18.7z M175.9,17.4
		c0.2-0.6,0.5-1.1,1-1.5c0.5-0.4,1.1-0.6,1.7-0.6c0.6,0,1.2,0.2,1.7,0.6c0.4,0.4,0.7,0.8,0.9,1.5H175.9z"/>
</g>
</svg>
