<svg xmlns="http://www.w3.org/2000/svg" viewBox="0 0 666.3 139.2"><path d="M314.5 57l-7.4-10.7h-8.2V57H290V18.4h16.7c10.3 0 16.7 5.3 16.7 14 0 5.8-2.9 10-7.9 12.2l8.6 12.4h-9.6zm-8.4-31.3h-7.3v13.4h7.3c5.5 0 8.2-2.5 8.2-6.7.1-4.2-2.7-6.7-8.2-6.7zM360.3 49.8V57h-29.9V18.4h29.1v7.2h-20.3V34h17.9v6.9h-17.9v8.9h21.1zM392.8 48.7h-17.9l-3.4 8.3h-9.1l17.2-38.6h8.8L405.6 57h-9.4l-3.4-8.3zm-2.8-6.8l-6.1-14.8-6.1 14.8H390zM409.6 18.4h8.9v31.3h19.3V57h-28.3V18.4zM488.3 49.8V57h-29.9V18.4h29.1v7.2h-20.3V34h17.9v6.9h-17.9v8.9h21.1zM492.4 53.2l3-6.7c3.2 2.4 8.1 4 12.7 4 5.3 0 7.4-1.8 7.4-4.1 0-7.2-22.4-2.3-22.4-16.6 0-6.6 5.3-12 16.2-12 4.8 0 9.8 1.2 13.4 3.4l-2.8 6.8c-3.6-2-7.3-3-10.7-3-5.3 0-7.3 2-7.3 4.4 0 7.1 22.4 2.2 22.4 16.4 0 6.4-5.3 12-16.4 12-5.9-.2-12.1-2-15.5-4.6zM538 25.7h-12.3v-7.3h33.6v7.3H547V57h-9V25.7zM587.5 48.7h-17.9l-3.4 8.3h-9.1l17.2-38.6h8.8L600.3 57h-9.4l-3.4-8.3zm-2.8-6.8l-6.1-14.8-6.1 14.8h12.2zM610.4 25.7h-12.3v-7.3h33.6v7.3h-12.3V57h-8.9V25.7zM666.3 49.8V57h-29.9V18.4h29.1v7.2h-20.3V34h17.9v6.9h-17.9v8.9h21.1z"/><g><path d="M323.4 96.9c0 8.6-6.4 13.9-16.7 13.9h-7.8v10.6H290V82.9h16.7c10.2 0 16.7 5.3 16.7 14zm-9 0c0-4.2-2.8-6.7-8.2-6.7h-7.3v13.4h7.3c5.4-.1 8.2-2.6 8.2-6.7zM353.2 113.2h-17.9l-3.4 8.3h-9.1L340 82.9h8.8l17.2 38.6h-9.4l-3.4-8.3zm-2.8-6.8l-6.1-14.8-6.1 14.8h12.2zM370 82.9h17.5c12.6 0 21.3 7.6 21.3 19.3 0 11.7-8.6 19.3-21.3 19.3H370V82.9zm17.1 31.2c7.7 0 12.7-4.6 12.7-12s-5-12-12.7-12h-8.2V114h8.2zM415.5 82.9H433c12.6 0 21.3 7.6 21.3 19.3 0 11.7-8.6 19.3-21.3 19.3h-17.5V82.9zm17.1 31.2c7.7 0 12.7-4.6 12.7-12s-5-12-12.7-12h-8.2V114h8.2zM477.9 107.8v13.7H469v-13.8l-15-24.8h9.5l10.3 17.1 10.3-17.1h8.8l-15 24.9z"/></g><path d="M222.3 69.9V38.4h-21.6v6.3l-21.3-24.9-33.3 38.8L102.8 0 0 139.2h24.9l77.9-105.6 78 105.6h100.8l-59.3-69.3zm19.6 51.5h-49.5l-35-47.4 22-25.6 62.5 73z"/></svg>